<svg width="44" height="44" viewBox="0 0 44 44" fill="none" xmlns="http://www.w3.org/2000/svg">
<path d="M9.81231 11.3521L11.0003 16.4121L9.81231 21.4501L14.2343 24.1781L16.9403 28.6001L22.0003 27.4121L27.0603 28.6001L29.7663 24.1781L34.1883 21.4501L33.0003 16.4121L34.1883 11.3521L29.7883 8.62415L27.0603 4.20215L22.0003 5.41215L16.9623 4.22415L14.2123 8.62415L9.81231 11.3521ZM22.0223 25.3001C19.6884 25.3001 17.4501 24.373 15.7998 22.7227C14.1495 21.0724 13.2223 18.8341 13.2223 16.5001C13.2223 14.1662 14.1495 11.9279 15.7998 10.2776C17.4501 8.62729 19.6884 7.70015 22.0223 7.70015C26.8623 7.70015 30.8003 11.6381 30.8003 16.4781C30.8003 21.3621 26.8623 25.3001 22.0223 25.3001ZM21.9783 23.1001C18.3263 23.1001 15.4003 20.1521 15.4003 16.5001C15.4003 12.8701 18.3263 9.90015 21.9783 9.90015C25.6303 9.90015 28.6003 12.8701 28.6003 16.5001C28.6003 20.1521 25.6303 23.1001 21.9783 23.1001ZM30.4263 25.5201L27.6103 30.4481L23.0343 29.4141L28.6003 42.2402L31.6803 37.4002H37.1803L30.4263 25.5201ZM13.4863 25.6741L16.2363 30.6241L20.9223 29.5021L15.4003 42.2402L12.3203 37.4002H6.82031L13.4863 25.6741Z" fill="#FF6C24"/>
</svg>
