<?xml version="1.0" standalone="no"?>
<!DOCTYPE svg PUBLIC "-//W3C//DTD SVG 20010904//EN"
 "http://www.w3.org/TR/2001/REC-SVG-20010904/DTD/svg10.dtd">
<svg version="1.0" xmlns="http://www.w3.org/2000/svg"
 width="1024.000000pt" height="1024.000000pt" viewBox="0 0 1024.000000 1024.000000"
 preserveAspectRatio="xMidYMid meet">

<g transform="translate(0.000000,1024.000000) scale(0.100000,-0.100000)"
fill="#000000" stroke="none">
<path d="M2480 10220 c-313 -31 -572 -251 -667 -565 -17 -57 -18 -207 -21
-3160 -2 -2804 -1 -3108 13 -3179 50 -248 206 -445 437 -550 135 -62 171 -66
627 -66 l410 0 -24 -58 c-137 -338 52 -758 385 -856 90 -27 202 -21 464 23
177 31 266 41 345 41 161 0 174 -4 200 -56 33 -69 136 -229 212 -330 168 -225
425 -487 743 -761 l149 -128 62 -160 c75 -195 106 -235 228 -295 151 -74 303
-101 577 -100 357 0 716 65 1075 195 520 189 789 455 744 737 -6 34 -12 65
-14 68 -2 4 -20 102 -40 219 -19 116 -67 386 -105 600 -144 808 -163 994 -165
1626 -1 253 -5 480 -9 505 -49 300 -266 576 -626 793 -162 98 -256 214 -460
567 -147 255 -223 364 -340 484 -100 103 -228 197 -326 237 l-54 23 0 1707 c0
1168 -3 1732 -11 1785 -20 148 -96 306 -201 420 -86 93 -241 183 -380 221 -58
16 -184 17 -1608 19 -850 1 -1579 -2 -1620 -6z m3145 -395 c111 -29 204 -108
254 -214 l26 -56 3 -2634 2 -2634 -42 35 c-399 322 -1238 928 -1395 1007 -205
103 -445 110 -627 20 -136 -68 -233 -165 -302 -304 -52 -104 -74 -197 -74
-310 0 -150 51 -304 141 -422 l39 -52 -24 -28 c-128 -153 -153 -391 -60 -580
62 -127 211 -244 355 -278 149 -35 328 1 438 86 13 11 27 19 32 19 13 0 319
-378 319 -394 0 -11 -2163 -7 -2221 4 -118 22 -218 99 -271 208 l-33 67 0
3095 0 3095 27 57 c31 67 95 140 153 173 95 56 23 54 1675 54 1347 1 1533 -1
1585 -14z m785 -4292 c91 -95 153 -186 309 -453 66 -113 148 -245 182 -293 84
-119 209 -243 316 -312 48 -32 120 -78 158 -104 39 -25 113 -89 165 -141 76
-75 103 -111 132 -170 55 -113 62 -166 56 -438 -6 -254 4 -642 22 -837 24
-263 59 -498 165 -1095 30 -168 70 -402 90 -520 19 -118 40 -228 45 -243 38
-112 -275 -299 -689 -413 -447 -123 -955 -165 -1099 -92 -44 23 -45 25 -102
173 -82 217 -84 219 -207 320 -277 230 -574 518 -717 695 -99 124 -214 301
-276 424 -74 150 -93 162 -300 192 -167 24 -341 15 -600 -31 -263 -47 -307
-48 -362 -9 -73 51 -114 172 -94 278 8 44 50 94 91 112 23 9 183 14 652 20
l621 7 12 -74 c67 -419 205 -743 436 -1026 106 -130 266 -294 307 -315 150
-76 316 57 275 219 -9 37 -31 67 -126 167 -336 355 -460 621 -517 1106 -25
209 -31 233 -74 282 -20 24 -68 88 -106 143 -297 429 -655 845 -1121 1300
-113 110 -138 140 -165 198 -29 63 -31 74 -27 150 5 98 26 144 91 204 64 59
138 80 227 64 86 -16 154 -52 329 -174 521 -362 1031 -747 1389 -1049 152
-129 204 -142 310 -81 33 19 50 38 68 76 l24 52 0 893 c0 856 1 892 18 883 10
-5 51 -45 92 -88z m-2216 -1869 c-34 -28 -89 -44 -151 -44 -224 0 -352 247
-226 440 l16 25 194 -200 193 -200 -26 -21z"/>
<path d="M2625 8948 c-3 -7 -4 -321 -3 -698 l3 -685 695 0 695 0 0 695 0 695
-693 3 c-549 2 -694 0 -697 -10z m1145 -688 l0 -450 -450 0 -450 0 0 450 0
450 450 0 450 0 0 -450z"/>
<path d="M3135 8437 c-3 -7 -4 -91 -3 -187 l3 -175 185 0 185 0 0 185 0 185
-183 3 c-143 2 -184 0 -187 -11z"/>
<path d="M4165 8948 c-3 -7 -4 -321 -3 -698 l3 -685 693 -3 692 -2 0 700 0
700 -690 0 c-543 0 -692 -3 -695 -12z m1145 -688 l0 -450 -455 0 -455 0 0 450
0 450 455 0 455 0 0 -450z"/>
<path d="M4670 8260 l0 -190 185 0 185 0 0 190 0 190 -185 0 -185 0 0 -190z"/>
<path d="M2620 6755 l0 -695 698 2 697 3 3 693 2 692 -700 0 -700 0 0 -695z
m1150 0 l0 -455 -450 0 -450 0 0 455 0 455 450 0 450 0 0 -455z"/>
<path d="M3130 6755 l0 -185 190 0 190 0 0 185 0 185 -190 0 -190 0 0 -185z"/>
<path d="M4160 7300 l0 -120 235 0 235 0 0 -330 0 -330 460 0 460 0 0 125 0
125 -340 0 -340 0 0 85 0 85 145 0 145 0 0 120 0 120 -145 0 -145 0 0 120 0
120 -355 0 -355 0 0 -120z"/>
<path d="M5310 7190 l0 -230 120 0 120 0 0 230 0 230 -120 0 -120 0 0 -230z"/>
<path d="M4167 6994 c-4 -4 -7 -99 -7 -211 l0 -203 125 0 125 0 -2 208 -3 207
-116 3 c-63 1 -118 -1 -122 -4z"/>
<path d="M4167 6293 c-4 -3 -7 -57 -7 -120 l0 -113 350 0 350 0 0 120 0 120
-343 0 c-189 0 -347 -3 -350 -7z"/>
<path d="M5160 6180 l0 -120 195 0 195 0 0 120 0 120 -195 0 -195 0 0 -120z"/>
</g>
</svg>
