<?xml version="1.0" encoding="UTF-8"?>
<!DOCTYPE svg PUBLIC "-//W3C//DTD SVG 1.1//EN" "http://www.w3.org/Graphics/SVG/1.1/DTD/svg11.dtd">
<svg version="1.2" width="264.85mm" height="134.67mm" viewBox="0 0 26485 13467" preserveAspectRatio="xMidYMid" fill-rule="evenodd" stroke-width="28.222" stroke-linejoin="round" xmlns="http://www.w3.org/2000/svg" xmlns:ooo="http://xml.openoffice.org/svg/export" xmlns:xlink="http://www.w3.org/1999/xlink" xmlns:presentation="http://sun.com/xmlns/staroffice/presentation" xmlns:smil="http://www.w3.org/2001/SMIL20/" xmlns:anim="urn:oasis:names:tc:opendocument:xmlns:animation:1.0" xml:space="preserve">
 <defs class="ClipPathGroup">
  <clipPath id="presentation_clip_path" clipPathUnits="userSpaceOnUse">
   <rect x="0" y="0" width="26485" height="13467"/>
  </clipPath>
  <clipPath id="presentation_clip_path_shrink" clipPathUnits="userSpaceOnUse">
   <rect x="26" y="13" width="26433" height="13441"/>
  </clipPath>
 </defs>
 <defs class="TextShapeIndex">
  <g ooo:slide="id1" ooo:id-list="id3"/>
 </defs>
 <defs class="EmbeddedBulletChars">
  <g id="bullet-char-template-57356" transform="scale(0.00048828125,-0.00048828125)">
   <path d="M 580,1141 L 1163,571 580,0 -4,571 580,1141 Z"/>
  </g>
  <g id="bullet-char-template-57354" transform="scale(0.00048828125,-0.00048828125)">
   <path d="M 8,1128 L 1137,1128 1137,0 8,0 8,1128 Z"/>
  </g>
  <g id="bullet-char-template-10146" transform="scale(0.00048828125,-0.00048828125)">
   <path d="M 174,0 L 602,739 174,1481 1456,739 174,0 Z M 1358,739 L 309,1346 659,739 1358,739 Z"/>
  </g>
  <g id="bullet-char-template-10132" transform="scale(0.00048828125,-0.00048828125)">
   <path d="M 2015,739 L 1276,0 717,0 1260,543 174,543 174,936 1260,936 717,1481 1274,1481 2015,739 Z"/>
  </g>
  <g id="bullet-char-template-10007" transform="scale(0.00048828125,-0.00048828125)">
   <path d="M 0,-2 C -7,14 -16,27 -25,37 L 356,567 C 262,823 215,952 215,954 215,979 228,992 255,992 264,992 276,990 289,987 310,991 331,999 354,1012 L 381,999 492,748 772,1049 836,1024 860,1049 C 881,1039 901,1025 922,1006 886,937 835,863 770,784 769,783 710,716 594,584 L 774,223 C 774,196 753,168 711,139 L 727,119 C 717,90 699,76 672,76 641,76 570,178 457,381 L 164,-76 C 142,-110 111,-127 72,-127 30,-127 9,-110 8,-76 1,-67 -2,-52 -2,-32 -2,-23 -1,-13 0,-2 Z"/>
  </g>
  <g id="bullet-char-template-10004" transform="scale(0.00048828125,-0.00048828125)">
   <path d="M 285,-33 C 182,-33 111,30 74,156 52,228 41,333 41,471 41,549 55,616 82,672 116,743 169,778 240,778 293,778 328,747 346,684 L 369,508 C 377,444 397,411 428,410 L 1163,1116 C 1174,1127 1196,1133 1229,1133 1271,1133 1292,1118 1292,1087 L 1292,965 C 1292,929 1282,901 1262,881 L 442,47 C 390,-6 338,-33 285,-33 Z"/>
  </g>
  <g id="bullet-char-template-9679" transform="scale(0.00048828125,-0.00048828125)">
   <path d="M 813,0 C 632,0 489,54 383,161 276,268 223,411 223,592 223,773 276,916 383,1023 489,1130 632,1184 813,1184 992,1184 1136,1130 1245,1023 1353,916 1407,772 1407,592 1407,412 1353,268 1245,161 1136,54 992,0 813,0 Z"/>
  </g>
  <g id="bullet-char-template-8226" transform="scale(0.00048828125,-0.00048828125)">
   <path d="M 346,457 C 273,457 209,483 155,535 101,586 74,649 74,723 74,796 101,859 155,911 209,963 273,989 346,989 419,989 480,963 531,910 582,859 608,796 608,723 608,648 583,586 532,535 482,483 420,457 346,457 Z"/>
  </g>
  <g id="bullet-char-template-8211" transform="scale(0.00048828125,-0.00048828125)">
   <path d="M -4,459 L 1135,459 1135,606 -4,606 -4,459 Z"/>
  </g>
  <g id="bullet-char-template-61548" transform="scale(0.00048828125,-0.00048828125)">
   <path d="M 173,740 C 173,903 231,1043 346,1159 462,1274 601,1332 765,1332 928,1332 1067,1274 1183,1159 1299,1043 1357,903 1357,740 1357,577 1299,437 1183,322 1067,206 928,148 765,148 601,148 462,206 346,322 231,437 173,577 173,740 Z"/>
  </g>
 </defs>
 <defs class="TextEmbeddedBitmaps"/>
 <g>
  <g id="id2" class="Master_Slide">
   <g id="bg-id2" class="Background"/>
   <g id="bo-id2" class="BackgroundObjects"/>
  </g>
 </g>
 <g class="SlideGroup">
  <g>
   <g id="container-id1">
    <g id="id1" class="Slide" clip-path="url(#presentation_clip_path)">
     <g class="Page">
      <g class="Graphic">
       <g id="id3">
        <rect class="BoundingBox" stroke="none" fill="none" x="0" y="0" width="26485" height="13467"/>
        <path fill="rgb(0,0,0)" stroke="none" d="M 4379,9730 L 8361,9730 C 8413,9730 8456,9685 8456,9633 8456,9606 8451,9585 8435,9569 L 8429,9561 6445,6995 6429,6976 C 6411,6958 6387,6945 6358,6945 6331,6945 6310,6958 6294,6971 L 6281,6987 6263,7008 4331,9543 4305,9577 C 4294,9593 4286,9611 4286,9630 4286,9683 4331,9730 4384,9730 Z M 8347,10093 L 4360,10093 C 4307,10093 4262,10135 4262,10188 L 4262,13310 C 4262,13363 4305,13408 4360,13408 L 5643,13408 5643,11442 C 5643,11389 5686,11347 5741,11347 L 6932,11347 C 6985,11347 7030,11389 7030,11445 L 7030,13410 8347,13410 C 8400,13410 8445,13365 8445,13313 L 8445,10191 C 8445,10138 8400,10096 8347,10096 Z M 21772,10553 C 21772,10606 21730,10646 21677,10646 L 20497,10646 C 20444,10646 20399,10601 20399,10551 L 20399,9836 C 20399,9783 20444,9738 20497,9738 L 21677,9738 C 21730,9738 21772,9781 21772,9834 L 21772,10548 21772,10553 Z M 21772,11876 C 21772,11929 21730,11971 21677,11971 L 20497,11971 C 20444,11971 20399,11929 20399,11876 L 20399,11162 C 20399,11109 20444,11066 20497,11066 L 21677,11066 C 21730,11066 21772,11109 21772,11159 L 21772,11873 21772,11876 Z M 19973,10553 C 19973,10606 19928,10646 19872,10646 L 18692,10646 C 18639,10646 18597,10601 18597,10551 L 18597,9836 C 18597,9783 18642,9738 18695,9738 L 19875,9738 C 19928,9738 19973,9781 19973,9834 L 19973,10548 19973,10553 Z M 19973,11876 C 19973,11929 19928,11971 19872,11971 L 18692,11971 C 18639,11971 18597,11929 18597,11876 L 18597,11162 C 18597,11109 18642,11066 18695,11066 L 19875,11066 C 19928,11066 19973,11109 19973,11159 L 19973,11873 19973,11876 Z M 22129,9275 L 18179,9275 C 18126,9275 18084,9318 18084,9371 L 18084,13358 C 18084,13410 18129,13450 18182,13450 L 22132,13450 C 22185,13450 22227,13408 22227,13358 L 22227,9368 C 22227,9315 22182,9275 22129,9275 L 22129,9275 Z M 12395,2857 C 12395,2884 12369,2910 12342,2910 L 11456,2910 C 11430,2910 11403,2884 11403,2857 L 11403,1870 C 11403,1844 11430,1818 11456,1818 L 12342,1818 C 12369,1818 12395,1844 12395,1870 L 12395,2857 12395,2857 Z M 12395,5119 C 12395,5146 12369,5172 12342,5172 L 11456,5172 C 11430,5172 11403,5146 11403,5119 L 11403,4135 C 11403,4109 11430,4082 11456,4082 L 12342,4082 C 12369,4082 12395,4109 12395,4135 L 12395,5119 12395,5119 Z M 12395,7384 C 12395,7410 12369,7437 12342,7437 L 11456,7437 C 11430,7437 11403,7410 11403,7384 L 11403,6397 C 11403,6371 11430,6344 11456,6344 L 12342,6344 C 12369,6344 12395,6371 12395,6397 L 12395,7384 12395,7384 Z M 12395,9646 C 12395,9678 12369,9699 12342,9699 L 11456,9699 C 11430,9699 11403,9678 11403,9646 L 11403,8667 C 11403,8635 11430,8614 11456,8614 L 12342,8614 C 12369,8614 12395,8635 12395,8667 L 12395,9646 12395,9646 Z M 12395,11913 C 12395,11940 12369,11966 12342,11966 L 11456,11966 C 11430,11966 11403,11940 11403,11913 L 11403,10926 C 11403,10900 11430,10873 11456,10873 L 12342,10873 C 12369,10873 12395,10900 12395,10926 L 12395,11913 12395,11913 Z M 10657,2860 C 10657,2886 10631,2913 10604,2913 L 9723,2913 C 9697,2913 9670,2886 9670,2860 L 9670,1870 C 9670,1844 9697,1818 9723,1818 L 10607,1818 C 10633,1818 10660,1844 10660,1870 L 10660,2857 10657,2860 Z M 10657,5122 C 10657,5148 10631,5175 10604,5175 L 9723,5175 C 9697,5175 9670,5148 9670,5122 L 9670,4138 C 9670,4111 9697,4085 9723,4085 L 10607,4085 C 10633,4085 10660,4111 10660,4138 L 10660,5119 10657,5122 Z M 10657,7386 C 10657,7413 10631,7439 10604,7439 L 9723,7439 C 9697,7439 9670,7413 9670,7386 L 9670,6400 C 9670,6373 9697,6347 9723,6347 L 10607,6347 C 10633,6347 10660,6373 10660,6400 L 10660,7386 10657,7386 Z M 10657,9648 C 10657,9680 10631,9701 10604,9701 L 9723,9701 C 9697,9701 9670,9680 9670,9648 L 9670,8670 C 9670,8638 9697,8617 9723,8617 L 10607,8617 C 10633,8617 10660,8638 10660,8670 L 10660,9648 10657,9648 Z M 10657,11916 C 10657,11942 10631,11969 10604,11969 L 9723,11969 C 9697,11969 9670,11942 9670,11916 L 9670,10929 C 9670,10902 9697,10876 9723,10876 L 10607,10876 C 10633,10876 10660,10902 10660,10929 L 10660,11916 10657,11916 Z M 12951,24 L 9096,24 C 9043,24 9001,66 9001,119 L 9001,13320 C 9001,13373 9043,13413 9096,13413 L 12959,13413 C 13012,13413 13052,13371 13052,13318 L 13052,119 C 13052,66 13009,24 12956,24 L 12951,24 Z M 22222,8876 C 22222,8918 22187,8955 22142,8955 L 18168,8955 C 18126,8955 18089,8918 18089,8876 L 18089,8082 C 18089,8035 18126,8003 18168,8003 L 22142,8003 C 22187,8003 22222,8035 22222,8082 L 22222,8876 Z M 17184,6548 C 17184,6601 17139,6646 17086,6646 L 15935,6646 C 15882,6646 15840,6603 15840,6550 L 15840,5836 C 15840,5783 15882,5738 15935,5738 L 17086,5738 C 17139,5738 17182,5781 17182,5834 L 17182,6548 17184,6548 Z M 17184,7881 C 17184,7934 17139,7976 17086,7976 L 15935,7976 C 15882,7976 15840,7934 15840,7881 L 15840,7162 C 15840,7109 15882,7066 15935,7066 L 17086,7066 C 17139,7066 17182,7109 17182,7162 L 17182,7881 17184,7881 Z M 17184,9215 C 17184,9267 17139,9307 17086,9307 L 15935,9307 C 15882,9307 15840,9265 15840,9215 L 15840,8492 C 15840,8439 15882,8397 15935,8397 L 17086,8397 C 17139,8397 17182,8437 17182,8490 L 17182,9212 17184,9215 Z M 17184,10545 C 17184,10598 17139,10641 17086,10641 L 15935,10641 C 15882,10641 15840,10598 15840,10548 L 15840,9828 C 15840,9775 15882,9736 15935,9736 L 17086,9736 C 17139,9736 17182,9775 17182,9828 L 17182,10543 17184,10545 Z M 17184,11879 C 17184,11932 17139,11974 17086,11974 L 15935,11974 C 15882,11974 15840,11932 15840,11879 L 15840,11159 C 15840,11106 15882,11064 15935,11064 L 17086,11064 C 17139,11064 17182,11106 17182,11159 L 17182,11879 17184,11879 Z M 15425,6296 L 15425,7884 C 15425,7937 15382,7979 15330,7979 L 14176,7979 C 14123,7979 14081,7937 14081,7886 L 14081,7685 C 14081,7670 14081,7659 14089,7648 L 14097,7638 C 14097,7632 14102,7627 14105,7625 14105,7619 14112,7614 14115,7609 14263,7402 14927,6582 15205,6241 L 15232,6207 C 15258,6180 15285,6167 15319,6167 15372,6167 15414,6207 15425,6257 L 15425,6296 15425,6296 Z M 15425,9217 C 15425,9270 15380,9310 15327,9310 L 14176,9310 C 14123,9310 14081,9267 14081,9217 L 14081,8495 C 14081,8442 14123,8400 14176,8400 L 15327,8400 C 15380,8400 15422,8439 15422,8492 L 15422,9215 15425,9217 Z M 15425,10548 C 15425,10601 15380,10643 15327,10643 L 14176,10643 C 14123,10643 14081,10601 14081,10551 L 14081,9828 C 14081,9775 14123,9736 14176,9736 L 15327,9736 C 15380,9736 15422,9775 15422,9828 L 15422,10543 15425,10548 Z M 15425,11881 C 15425,11934 15380,11977 15327,11977 L 14176,11977 C 14123,11977 14081,11934 14081,11881 L 14081,11162 C 14081,11109 14123,11066 14176,11066 L 15327,11066 C 15380,11066 15422,11109 15422,11162 L 15422,11881 15425,11881 Z M 16023,5135 L 16049,5103 C 16314,4770 16750,4230 16962,3971 L 16988,3937 C 17010,3915 17041,3900 17076,3900 17129,3900 17171,3937 17182,3987 L 17182,5204 C 17182,5262 17134,5310 17076,5310 L 17070,5310 16118,5310 16113,5310 16107,5310 C 16049,5310 16002,5262 16002,5204 16002,5177 16012,5156 16028,5138 L 16023,5135 Z M 17623,2524 C 17610,2479 17570,2450 17525,2450 17504,2450 17486,2455 17473,2466 L 17462,2466 17430,2511 13634,7326 13618,7352 C 13599,7368 13591,7394 13586,7423 L 13586,13342 C 13586,13395 13628,13434 13681,13434 L 17544,13434 C 17592,13434 17634,13392 17634,13342 L 17634,2553 C 17634,2542 17634,2527 17626,2519 L 17623,2524 Z"/>
       </g>
      </g>
     </g>
    </g>
   </g>
  </g>
 </g>
</svg>