<?xml version="1.0" encoding="UTF-8"?>
<!DOCTYPE svg PUBLIC "-//W3C//DTD SVG 1.1//EN" "http://www.w3.org/Graphics/SVG/1.1/DTD/svg11.dtd">
<svg version="1.2" width="264.85mm" height="128.85mm" viewBox="0 0 26485 12885" preserveAspectRatio="xMidYMid" fill-rule="evenodd" stroke-width="28.222" stroke-linejoin="round" xmlns="http://www.w3.org/2000/svg" xmlns:ooo="http://xml.openoffice.org/svg/export" xmlns:xlink="http://www.w3.org/1999/xlink" xmlns:presentation="http://sun.com/xmlns/staroffice/presentation" xmlns:smil="http://www.w3.org/2001/SMIL20/" xmlns:anim="urn:oasis:names:tc:opendocument:xmlns:animation:1.0" xml:space="preserve">
 <defs class="ClipPathGroup">
  <clipPath id="presentation_clip_path" clipPathUnits="userSpaceOnUse">
   <rect x="0" y="0" width="26485" height="12885"/>
  </clipPath>
  <clipPath id="presentation_clip_path_shrink" clipPathUnits="userSpaceOnUse">
   <rect x="26" y="12" width="26433" height="12860"/>
  </clipPath>
 </defs>
 <defs class="TextShapeIndex">
  <g ooo:slide="id1" ooo:id-list="id3"/>
 </defs>
 <defs class="EmbeddedBulletChars">
  <g id="bullet-char-template-57356" transform="scale(0.00048828125,-0.00048828125)">
   <path d="M 580,1141 L 1163,571 580,0 -4,571 580,1141 Z"/>
  </g>
  <g id="bullet-char-template-57354" transform="scale(0.00048828125,-0.00048828125)">
   <path d="M 8,1128 L 1137,1128 1137,0 8,0 8,1128 Z"/>
  </g>
  <g id="bullet-char-template-10146" transform="scale(0.00048828125,-0.00048828125)">
   <path d="M 174,0 L 602,739 174,1481 1456,739 174,0 Z M 1358,739 L 309,1346 659,739 1358,739 Z"/>
  </g>
  <g id="bullet-char-template-10132" transform="scale(0.00048828125,-0.00048828125)">
   <path d="M 2015,739 L 1276,0 717,0 1260,543 174,543 174,936 1260,936 717,1481 1274,1481 2015,739 Z"/>
  </g>
  <g id="bullet-char-template-10007" transform="scale(0.00048828125,-0.00048828125)">
   <path d="M 0,-2 C -7,14 -16,27 -25,37 L 356,567 C 262,823 215,952 215,954 215,979 228,992 255,992 264,992 276,990 289,987 310,991 331,999 354,1012 L 381,999 492,748 772,1049 836,1024 860,1049 C 881,1039 901,1025 922,1006 886,937 835,863 770,784 769,783 710,716 594,584 L 774,223 C 774,196 753,168 711,139 L 727,119 C 717,90 699,76 672,76 641,76 570,178 457,381 L 164,-76 C 142,-110 111,-127 72,-127 30,-127 9,-110 8,-76 1,-67 -2,-52 -2,-32 -2,-23 -1,-13 0,-2 Z"/>
  </g>
  <g id="bullet-char-template-10004" transform="scale(0.00048828125,-0.00048828125)">
   <path d="M 285,-33 C 182,-33 111,30 74,156 52,228 41,333 41,471 41,549 55,616 82,672 116,743 169,778 240,778 293,778 328,747 346,684 L 369,508 C 377,444 397,411 428,410 L 1163,1116 C 1174,1127 1196,1133 1229,1133 1271,1133 1292,1118 1292,1087 L 1292,965 C 1292,929 1282,901 1262,881 L 442,47 C 390,-6 338,-33 285,-33 Z"/>
  </g>
  <g id="bullet-char-template-9679" transform="scale(0.00048828125,-0.00048828125)">
   <path d="M 813,0 C 632,0 489,54 383,161 276,268 223,411 223,592 223,773 276,916 383,1023 489,1130 632,1184 813,1184 992,1184 1136,1130 1245,1023 1353,916 1407,772 1407,592 1407,412 1353,268 1245,161 1136,54 992,0 813,0 Z"/>
  </g>
  <g id="bullet-char-template-8226" transform="scale(0.00048828125,-0.00048828125)">
   <path d="M 346,457 C 273,457 209,483 155,535 101,586 74,649 74,723 74,796 101,859 155,911 209,963 273,989 346,989 419,989 480,963 531,910 582,859 608,796 608,723 608,648 583,586 532,535 482,483 420,457 346,457 Z"/>
  </g>
  <g id="bullet-char-template-8211" transform="scale(0.00048828125,-0.00048828125)">
   <path d="M -4,459 L 1135,459 1135,606 -4,606 -4,459 Z"/>
  </g>
  <g id="bullet-char-template-61548" transform="scale(0.00048828125,-0.00048828125)">
   <path d="M 173,740 C 173,903 231,1043 346,1159 462,1274 601,1332 765,1332 928,1332 1067,1274 1183,1159 1299,1043 1357,903 1357,740 1357,577 1299,437 1183,322 1067,206 928,148 765,148 601,148 462,206 346,322 231,437 173,577 173,740 Z"/>
  </g>
 </defs>
 <defs class="TextEmbeddedBitmaps"/>
 <g>
  <g id="id2" class="Master_Slide">
   <g id="bg-id2" class="Background"/>
   <g id="bo-id2" class="BackgroundObjects"/>
  </g>
 </g>
 <g class="SlideGroup">
  <g>
   <g id="container-id1">
    <g id="id1" class="Slide" clip-path="url(#presentation_clip_path)">
     <g class="Page">
      <g class="Graphic">
       <g id="id3">
        <rect class="BoundingBox" stroke="none" fill="none" x="0" y="0" width="26485" height="12885"/>
        <path fill="rgb(0,0,0)" stroke="none" d="M 15589,5984 C 16269,5355 16695,4455 16695,3458 16695,3310 16684,3167 16668,3019 18044,3167 19124,4336 19124,5754 19124,6561 18774,7283 18219,7791 17703,6812 16732,6125 15591,5984 Z M 17930,9405 C 17930,10921 16695,12156 15179,12156 14684,12156 14221,12024 13819,11794 14406,11178 14766,10344 14766,9426 14766,9201 14745,8982 14702,8765 15197,9043 15766,9199 16369,9199 16909,9199 17420,9074 17877,8855 17909,9032 17930,9217 17930,9405 Z M 8564,9426 C 8564,9230 8591,9040 8628,8857 9083,9077 9591,9201 10125,9201 10734,9201 11297,9043 11792,8770 11752,8976 11731,9188 11731,9405 11731,10331 12102,11178 12702,11802 12295,12040 11824,12178 11319,12178 9800,12178 8567,10945 8567,9426 Z M 7368,5754 C 7368,4336 8448,3167 9829,3019 9808,3164 9797,3310 9797,3458 9797,4463 10231,5373 10924,6005 9779,6138 8808,6826 8279,7794 7723,7291 7368,6566 7368,5757 Z M 13242,709 C 14372,709 15340,1392 15766,2365 14647,2561 13713,3302 13242,4302 12776,3302 11840,2561 10721,2365 11152,1389 12118,706 13242,706 Z M 13903,6966 C 14284,6767 14718,6648 15173,6648 16258,6648 17195,7283 17645,8191 17264,8394 16830,8508 16375,8508 15290,8508 14353,7879 13903,6968 Z M 12581,6987 C 12131,7886 11205,8508 10125,8508 9670,8508 9242,8394 8863,8199 9313,7299 10244,6677 11324,6677 11774,6677 12205,6791 12583,6987 Z M 10535,3037 C 11858,3236 12882,4378 12882,5757 12882,5902 12866,6043 12845,6180 11517,5982 10496,4841 10496,3460 10496,3318 10512,3177 10533,3037 Z M 13258,11379 C 12747,10876 12424,10180 12424,9408 12424,8646 12742,7953 13239,7458 13753,7961 14075,8656 14075,9429 14075,10191 13766,10879 13263,11379 Z M 16004,3460 C 16004,4841 14983,5982 13657,6180 13636,6043 13620,5902 13620,5757 13620,4381 14642,3236 15967,3040 15986,3177 16002,3318 16002,3463 Z M 19817,5754 C 19817,3897 18335,2378 16496,2315 16020,974 14750,13 13247,13 11750,13 10475,974 9998,2315 8157,2376 6681,3894 6681,5754 6681,6857 7202,7839 8011,8471 7921,8775 7874,9096 7874,9424 7874,11328 9422,12871 11324,12871 12043,12871 12713,12649 13268,12268 13813,12638 14470,12850 15173,12850 17078,12850 18623,11305 18623,9405 18623,9080 18576,8765 18491,8466 19298,7836 19814,6852 19814,5754 Z"/>
       </g>
      </g>
     </g>
    </g>
   </g>
  </g>
 </g>
</svg>